<?xml version="1.0" standalone="no"?>
<!DOCTYPE svg PUBLIC "-//W3C//DTD SVG 20010904//EN"
 "http://www.w3.org/TR/2001/REC-SVG-20010904/DTD/svg10.dtd">
<svg version="1.0" xmlns="http://www.w3.org/2000/svg"
 width="225.000000pt" height="225.000000pt" viewBox="0 0 225.000000 225.000000"
 preserveAspectRatio="xMidYMid meet">
<metadata>
Created by potrace 1.11, written by Peter Selinger 2001-2013
</metadata>
<g transform="translate(0.000000,225.000000) scale(0.100000,-0.100000)"
fill="#000000" stroke="none">
<path d="M0 1125 l0 -1125 1125 0 1125 0 0 1125 0 1125 -1125 0 -1125 0 0
-1125z m1248 1014 c25 -7 41 -16 38 -23 -2 -6 -21 -47 -40 -91 l-35 -80 -80
-7 c-379 -32 -692 -302 -775 -668 -9 -39 -19 -114 -23 -166 -4 -58 -10 -94
-17 -94 -6 0 -47 -16 -91 -36 -44 -19 -85 -38 -92 -40 -30 -14 -52 190 -33
317 60 413 380 783 764 885 80 21 107 24 216 20 69 -3 144 -10 168 -17z m-62
-396 c0 -86 5 -130 17 -163 l18 -44 -236 -236 -236 -237 -122 0 c-67 0 -142
-5 -166 -11 l-44 -11 6 92 c8 122 27 192 84 307 63 127 187 255 308 317 93 48
186 80 270 92 110 16 100 27 101 -106z m369 -323 l-35 -35 -67 67 -67 68 34
35 34 35 68 -67 68 -68 -35 -35z m-325 -385 l-260 -260 -97 98 -98 97 260 260
260 260 97 -97 98 -98 -260 -260z m919 189 c21 -80 18 -274 -8 -368 -89 -333
-396 -634 -751 -736 -96 -28 -293 -38 -392 -20 -38 6 -67 15 -66 18 17 33 68
144 78 173 l13 36 111 6 c67 3 140 14 184 26 349 101 594 402 628 772 l6 76
82 35 c44 20 86 35 91 34 6 -2 16 -25 24 -52z m-396 -47 l107 -1 0 -46 c0
-123 -86 -335 -182 -447 -137 -161 -322 -252 -547 -270 l-84 -6 8 24 c4 13 9
91 11 173 l2 149 233 233 232 232 56 -20 c43 -16 81 -21 164 -21z m-940 -365
c31 -32 57 -62 57 -67 0 -6 -147 -157 -327 -337 l-328 -328 -62 0 -63 0 0 72
0 73 322 322 c178 178 328 323 333 323 6 0 36 -26 68 -58z"/>
</g>
</svg>
